<svg xmlns="http://www.w3.org/2000/svg" viewBox="0 0 24 24" fill="#2EAD33"><path d="M13.91 1.998c-2.194 0-4.106 1.12-5.247 2.806a6.647 6.647 0 0 0-.122.184c-.11-.006-.222-.009-.333-.009C3.985 4.98.652 7.672.065 11.29c-.09.554.28 1.078.833 1.168.553.09 1.077-.28 1.167-.833.42-2.584 2.903-4.598 5.742-4.598h.001c.108 0 .216.004.323.011a6.665 6.665 0 0 0-.041.747c0 3.538 2.849 5.975 5.82 5.975.556 0 1.007-.45 1.007-1.007 0-.557-.45-1.008-1.007-1.008-1.793 0-3.806-1.394-3.806-3.96 0-2.567 2.013-4.771 3.806-4.771 1.794 0 3.807 2.204 3.807 4.77 0 5.89-3.093 8.986-5.96 10.256a1.007 1.007 0 0 0 .845 1.83C15.895 18.609 19.73 14.6 19.73 7.024c0-3.024-2.525-5.026-5.82-5.026zm3.313 12.65c-.384.384-.384 1.006 0 1.39.175.176.564.538 1.16.538s.985-.362 1.161-.537c.384-.385.384-1.008 0-1.392a.986.986 0 0 0-1.161-.196.986.986 0 0 0-1.16.196zM6.67 14.06c-1.353 0-2.555.651-3.31 1.658-.106.142-.203.29-.291.445a4.09 4.09 0 0 0-.532 2.024c0 2.269 1.851 4.12 4.133 4.12 2.283 0 4.134-1.851 4.134-4.12 0-2.27-1.851-4.127-4.134-4.127zm0 2.015c1.167 0 2.12.95 2.12 2.112a2.117 2.117 0 0 1-2.12 2.105 2.116 2.116 0 0 1-2.119-2.105A2.117 2.117 0 0 1 6.67 16.075z"/></svg>